<?xml version="1.0" encoding="utf-8"?>
<!-- Generator: Adobe Illustrator 21.0.2, SVG Export Plug-In . SVG Version: 6.00 Build 0)  -->
<svg version="1.1" id="Layer_1" xmlns="http://www.w3.org/2000/svg" xmlns:xlink="http://www.w3.org/1999/xlink" x="0px" y="0px"
	 viewBox="0 0 54 67.2" style="enable-background:new 0 0 54 67.2;" xml:space="preserve">
<title>56 all</title>
<path d="M53,18.3H41.2V8c0-4.4-3.6-8-8-8H20.8c-4.4,0-8,3.6-8,8v10.3H1c-0.6,0-1,0.4-1,1l0,0l0,0c0,0,1.4,32,1.8,43.2
	c0.1,2.7,2.3,4.8,5,4.8h40.3c2.7,0,4.9-2.1,5-4.8L54,19.3l0,0l0,0C54,18.7,53.6,18.3,53,18.3C53,18.3,53,18.2,53,18.3z M14.8,8
	c0-3.3,2.7-6,6-6h12.4c3.3,0,6,2.7,6,6v10.3H14.8V8z M50.2,62.4c-0.1,1.6-1.4,2.9-3,2.9H6.8c-1.6,0-2.9-1.3-3-2.9
	C3.4,52.4,2.3,25.8,2,20.2h10.8v14.3c0,0.6,0.4,1,1,1s1-0.4,1-1V20.3h24.4v14.2c0,0.6,0.4,1,1,1s1-0.4,1-1V20.3H52L50.2,62.4z"/>
</svg>
